<?xml version="1.0" encoding="iso-8859-1"?>
<!-- Uploaded to: SVG Repo, www.svgrepo.com, Generator: SVG Repo Mixer Tools -->
<svg fill="#000000" height="800px" width="800px" version="1.1" id="Layer_1" xmlns="http://www.w3.org/2000/svg" xmlns:xlink="http://www.w3.org/1999/xlink" 
	 viewBox="0 0 512 512" xml:space="preserve">
<g>
	<g>
		<g>
			<path d="M458.667,32H96c-5.867,0-10.667,4.8-10.667,10.667V288c0,5.867,4.8,10.667,10.667,10.667h362.667
				c5.867,0,10.667-4.8,10.667-10.667V42.667C469.333,36.8,464.533,32,458.667,32z M448,277.333H106.667v-224H448V277.333z"/>
			<path d="M53.333,0c-5.867,0-10.667,4.8-10.667,10.667v490.667c0,5.867,4.8,10.667,10.667,10.667C59.2,512,64,507.2,64,501.333
				V10.667C64,4.8,59.2,0,53.333,0z"/>
		</g>
	</g>
</g>
</svg>